<?xml version="1.0" encoding="UTF-8"?>
<svg version="1.1" xmlns="http://www.w3.org/2000/svg" width="512" height="512">
<path d="M0 0 C1.27722931 -0.0066568 2.55445862 -0.0133136 3.87039185 -0.02017212 C6.55783465 -0.0320302 9.24515015 -0.03586549 11.93261719 -0.03466797 C14.63178605 -0.03450644 17.33026875 -0.04825061 20.02929688 -0.07568359 C37.47839319 -0.23993548 54.05703617 0.61533102 71.1328125 4.3359375 C71.85295532 4.49205505 72.57309814 4.64817261 73.31506348 4.809021 C77.44011087 5.72902559 81.50690237 6.80099776 85.5703125 7.9609375 C86.7763916 8.30157227 87.9824707 8.64220703 89.22509766 8.99316406 C114.14758437 16.25391737 139.11708903 26.89581414 160.1328125 42.3359375 C160.73077637 42.76841797 161.32874023 43.20089844 161.94482422 43.64648438 C186.12847828 61.1668658 209.06731776 81.67398808 226.1328125 106.3359375 C226.57334961 106.95839355 227.01388672 107.58084961 227.46777344 108.22216797 C234.47785153 118.14833431 240.49184558 128.58076874 246.1328125 139.3359375 C246.70298096 140.40908203 246.70298096 140.40908203 247.28466797 141.50390625 C262.68899299 170.85566134 272.17360853 205.69611296 272.37109375 238.8359375 C272.3791655 240.14385254 272.38723724 241.45176758 272.39555359 242.79931641 C272.4105197 245.56966005 272.42037981 248.33997878 272.42797852 251.11035156 C272.43674277 253.89899189 272.45739653 256.68711825 272.48950195 259.47558594 C273.21061535 323.5610523 249.31761891 382.72523815 206.26953125 429.98046875 C204.25649559 432.19959216 202.28282473 434.44714407 200.3203125 436.7109375 C195.46576705 442.26220013 195.46576705 442.26220013 193.1328125 444.3359375 C192.4728125 444.3359375 191.8128125 444.3359375 191.1328125 444.3359375 C191.1328125 444.9959375 191.1328125 445.6559375 191.1328125 446.3359375 C156.78530752 482.86258932 94.99795854 510.55833396 45.16836548 512.44837952 C41.59506996 512.51765151 38.02312833 512.5532384 34.44921875 512.57421875 C33.4644521 512.58033204 33.4644521 512.58033204 32.45979118 512.58656883 C28.96855881 512.60735421 25.47736458 512.62167486 21.98608398 512.63110352 C19.15577998 512.63986234 16.32598327 512.660502 13.49584961 512.69262695 C-9.13130321 512.94352456 -31.11966159 511.53199246 -52.9296875 504.9609375 C-53.96730225 504.65768555 -55.00491699 504.35443359 -56.07397461 504.04199219 C-78.14487096 497.48032793 -99.44272793 488.23005543 -119.00463867 476.04443359 C-119.80619385 475.5592627 -120.60774902 475.0740918 -121.43359375 474.57421875 C-122.12396729 474.14149658 -122.81434082 473.70877441 -123.52563477 473.26293945 C-129.39768122 470.93824334 -134.57188336 472.62836488 -140.09765625 475.01953125 C-140.78946991 475.30630737 -141.48128357 475.5930835 -142.19406128 475.8885498 C-143.69631701 476.5123241 -145.19635498 477.14146086 -146.69436646 477.77536011 C-150.79565124 479.50961555 -154.91425194 481.20190299 -159.03125 482.8984375 C-159.9008284 483.2578392 -160.7704068 483.61724091 -161.66633606 483.98753357 C-172.92386631 488.62354392 -184.29603864 492.96315401 -195.66317749 497.32150269 C-197.43633239 498.00142544 -199.20933942 498.68173395 -200.98219299 499.36244202 C-202.70647315 500.02423587 -204.43126826 500.68468976 -206.15660095 501.34373474 C-210.59811093 503.04743699 -215.01462563 504.79716827 -219.40966797 506.61767578 C-220.31365829 506.98953506 -221.21764862 507.36139435 -222.14903259 507.74452209 C-223.86795584 508.45453428 -225.58336856 509.17312993 -227.29444885 509.90184021 C-231.66289302 511.70204087 -235.04633144 512.76883267 -239.8671875 512.3359375 C-239.33911911 505.96668353 -237.74804192 500.71621876 -235.3828125 494.80078125 C-235.02834045 493.89311508 -234.67386841 492.98544891 -234.30865479 492.05027771 C-233.17028866 489.1419562 -232.0190827 486.23892353 -230.8671875 483.3359375 C-230.11840172 481.43014041 -229.37035201 479.52405395 -228.62304688 477.61767578 C-226.70112627 472.72316666 -224.76613133 467.83394737 -222.82632446 462.94650269 C-221.58717116 459.82277051 -220.35131439 456.69774876 -219.1159668 453.57250977 C-215.44522543 444.29463966 -211.75889482 435.02509191 -207.96484375 425.796875 C-207.39535558 424.40427774 -206.82601329 423.01162081 -206.25683594 421.61889648 C-205.24072327 419.13316834 -204.2097509 416.65562935 -203.16894531 414.17993164 C-199.8717439 406.5049291 -199.8717439 406.5049291 -199.8671875 398.3359375 C-201.38519654 394.84785258 -203.2559069 391.61382558 -205.1796875 388.3359375 C-206.29317672 386.35517178 -207.40243976 384.37202532 -208.5078125 382.38671875 C-209.07177734 381.37689941 -209.63574219 380.36708008 -210.21679688 379.32666016 C-217.69967907 365.76670351 -223.68533064 351.84888106 -228.6796875 337.2109375 C-229.111604 335.96981201 -229.54352051 334.72868652 -229.98852539 333.44995117 C-238.21592113 308.9522303 -240.83518996 285.23906952 -240.5123291 259.62664795 C-240.4853581 256.72661125 -240.49603104 253.82718253 -240.50606632 250.92707634 C-240.55001069 234.06230114 -239.56672322 217.85435992 -235.8671875 201.3359375 C-235.62129883 200.17368652 -235.37541016 199.01143555 -235.12207031 197.81396484 C-234.5335748 195.17558807 -233.88503405 192.5701992 -233.1796875 189.9609375 C-232.93041504 189.03144287 -232.68114258 188.10194824 -232.42431641 187.14428711 C-221.3013511 146.96835072 -201.30507727 111.71742406 -172.8671875 81.3359375 C-171.63175483 79.92473189 -170.40207865 78.50845464 -169.1796875 77.0859375 C-159.90853119 66.45010165 -149.1381713 57.75788362 -137.8671875 49.3359375 C-137.25262695 48.87026367 -136.63806641 48.40458984 -136.00488281 47.92480469 C-97.86284926 19.17697664 -48.00375419 0.09002664 0 0 Z M-122.8671875 170.3359375 C-126.49487368 176.30804673 -127.98829924 181.38273999 -128.00762939 188.37504578 C-128.01333954 189.61283279 -128.01904968 190.85061981 -128.02493286 192.12591553 C-128.02617814 193.49499502 -128.02730325 194.86407462 -128.02832031 196.2331543 C-128.03295051 197.67725247 -128.03797545 199.12134941 -128.04336548 200.56544495 C-128.05647402 204.48717445 -128.06293169 208.40888685 -128.06737614 212.33063483 C-128.07031001 214.78307114 -128.07441546 217.23550281 -128.07888031 219.68793678 C-128.0925526 227.36754258 -128.10221997 235.04713772 -128.1060822 242.72675484 C-128.11055921 251.57928135 -128.12809159 260.43165317 -128.1570828 269.28413266 C-128.17873472 276.13440664 -128.18878839 282.98463721 -128.19012332 289.83494502 C-128.19116905 293.92256771 -128.19702696 298.01004493 -128.21494293 302.09763145 C-128.23148395 305.94640734 -128.23355009 309.79492938 -128.22480392 313.64372826 C-128.2240367 315.05094587 -128.22833448 316.45817746 -128.23826218 317.86536026 C-128.29991303 327.15390624 -127.87980233 334.77397789 -122.6796875 342.6484375 C-115.76601902 349.25483183 -108.33465936 350.43920731 -98.97583008 350.5032959 C-97.97227793 350.51198598 -97.97227793 350.51198598 -96.948452 350.52085161 C-94.7195477 350.53880532 -92.49066837 350.54975156 -90.26171875 350.56054688 C-88.65795163 350.5717319 -87.05418678 350.58324552 -85.45042419 350.59506226 C-80.19354465 350.63151511 -74.93664179 350.65682954 -69.6796875 350.6796875 C-68.33477486 350.6856063 -68.33477486 350.6856063 -66.96269226 350.69164467 C-58.49507646 350.72806222 -50.02745202 350.75947975 -41.55978394 350.78075409 C-30.7602935 350.80829583 -19.96146196 350.85901768 -9.16224575 350.94122839 C-1.55178468 350.99718512 6.05849854 351.02601382 13.66915798 351.0352273 C18.20599079 351.0414586 22.74204958 351.05934563 27.27865601 351.10661316 C31.55371317 351.15060567 35.82758164 351.16066934 40.10282707 351.14598465 C41.66118322 351.14631057 43.21959425 351.15837139 44.77774239 351.18383408 C55.51307701 351.34983212 64.22709414 349.70528433 73.1328125 343.3359375 C77.84768895 337.03662696 79.27199427 330.36292895 79.23046875 322.59765625 C79.22724609 321.53095703 79.22402344 320.46425781 79.22070312 319.36523438 C79.21232422 318.26244141 79.20394531 317.15964844 79.1953125 316.0234375 C79.18854492 314.34024414 79.18854492 314.34024414 79.18164062 312.62304688 C79.16988563 309.8606224 79.15345327 307.09830752 79.1328125 304.3359375 C86.19135223 307.17809107 93.24893391 310.02261411 100.3059082 312.86865234 C102.69794986 313.83304292 105.09019646 314.79692535 107.48266602 315.76025391 C110.95645628 317.15908585 114.42941211 318.55997542 117.90234375 319.9609375 C119.03801788 320.41742676 120.17369202 320.87391602 121.34378052 321.34423828 C126.52319382 323.43414332 131.68048966 325.55378749 136.79052734 327.80859375 C137.64998459 328.18483887 138.50944183 328.56108398 139.39494324 328.94873047 C140.95498601 329.63667811 142.50989478 330.33646417 144.05781555 331.05126953 C148.987248 333.22100026 152.74677623 333.6562516 158.1328125 333.3359375 C160.1951909 329.92864672 160.38591341 327.28980554 160.39350891 323.33911133 C160.40059372 322.11092682 160.40767853 320.88274231 160.41497803 319.61734009 C160.4126843 318.25921594 160.41017461 316.90109214 160.4074707 315.54296875 C160.41181862 314.11046076 160.41700203 312.67795509 160.42295837 311.24545288 C160.43634983 307.35708922 160.43692699 303.46882275 160.43439507 299.58044052 C160.43332565 296.33477018 160.43820789 293.08911953 160.4430005 289.84345341 C160.45409577 282.18761282 160.4545327 274.5318213 160.44848633 266.87597656 C160.44244289 258.97564144 160.45476683 251.07548425 160.4760564 243.17517948 C160.49366164 236.39291529 160.49967554 229.6107078 160.49641865 222.82842159 C160.49460423 218.77729898 160.49725792 214.72630336 160.51113319 210.67520142 C160.5236898 206.866642 160.52178823 203.0583605 160.50872231 199.24980545 C160.50635237 197.85178153 160.50910614 196.45373819 160.51734543 195.05573654 C160.52777807 193.14810435 160.51792901 191.24039328 160.5070343 189.33276367 C160.50720204 188.26499191 160.50736979 187.19722015 160.50754261 186.09709167 C160.07970028 182.94458643 159.3900371 181.55720655 157.1328125 179.3359375 C151.76752631 178.63100347 147.64020319 179.98251974 142.8046875 182.125 C142.10960083 182.42034134 141.41451416 182.71568268 140.69836426 183.01997375 C139.20109921 183.65756484 137.70620076 184.30073703 136.21350098 184.94894409 C132.22832755 186.67932088 128.22606067 188.36947179 124.2265625 190.06640625 C122.99066376 190.59292534 122.99066376 190.59292534 121.72979736 191.13008118 C112.66881069 194.98131339 103.53143354 198.63644466 94.3828125 202.2734375 C92.83949931 202.8881361 91.29620454 203.50288093 89.75292969 204.11767578 C86.21399438 205.52655529 82.6738279 206.9322947 79.1328125 208.3359375 C79.14852295 207.62574463 79.1642334 206.91555176 79.18041992 206.18383789 C79.2433239 202.9221209 79.28197787 199.66053213 79.3203125 196.3984375 C79.34544922 195.28146484 79.37058594 194.16449219 79.39648438 193.01367188 C79.47728238 183.82963221 78.32490915 175.50573362 72.1328125 168.3359375 C65.5541461 163.85710373 60.31296349 162.21667561 52.37911987 162.18876648 C51.70080459 162.18508979 51.0224893 162.1814131 50.32361901 162.177625 C48.05151304 162.16661534 45.77945284 162.16274893 43.50732422 162.15893555 C41.87765865 162.15266876 40.2479945 162.14602176 38.61833191 162.13902283 C33.26639802 162.11800267 27.91446392 162.10762118 22.5625 162.09765625 C20.71776439 162.09360769 18.87302892 162.08949074 17.02829361 162.08530617 C8.35930497 162.06625765 -0.30967519 162.05202686 -8.97868073 162.0436942 C-18.97339023 162.03392782 -28.96787791 162.00762255 -38.96250927 161.96719331 C-46.69516818 161.93699151 -54.42776366 161.9222214 -62.16048038 161.91891319 C-66.77523005 161.91656702 -71.38974266 161.90766329 -76.00442886 161.88245201 C-80.34981538 161.85909554 -84.69481002 161.85496833 -89.04024315 161.86521339 C-90.62926605 161.86570706 -92.21830873 161.85943694 -93.80727196 161.84565735 C-104.35193963 161.75937934 -115.14709494 162.16172185 -122.8671875 170.3359375 Z " fill="#FFFFFF" transform="translate(239.8671875,-0.3359375)"/>
</svg>
