<?xml version="1.0" encoding="UTF-8"?>
<svg version="1.1" xmlns="http://www.w3.org/2000/svg" width="512" height="512">
<path d="M0 0 C1.90721006 -0.00935994 1.90721006 -0.00935994 3.85294962 -0.01890898 C7.35708551 -0.03550926 10.86078209 -0.02739892 14.36491895 -0.0149641 C18.15368356 -0.00587746 21.94237501 -0.01990117 25.73112488 -0.03088379 C33.14337319 -0.04863521 40.55545914 -0.04484415 47.96771371 -0.03323323 C53.99381423 -0.02418584 60.01986937 -0.02298054 66.04597473 -0.02732849 C67.33431756 -0.02824789 67.33431756 -0.02824789 68.64868751 -0.02918586 C70.39372187 -0.03046481 72.13875622 -0.03176167 73.88379055 -0.03307623 C90.23254167 -0.04447213 106.58120295 -0.03138387 122.92993933 -0.00987476 C136.94646123 0.00799533 150.96285061 0.00489094 164.97937012 -0.0135498 C181.27111984 -0.03497402 197.5627909 -0.04337359 213.85455275 -0.03110075 C215.59303251 -0.0298266 217.33151228 -0.02856912 219.06999207 -0.02732849 C219.92527336 -0.02671139 220.78055466 -0.02609429 221.66175357 -0.02545848 C227.67798946 -0.02201024 233.6941753 -0.02782259 239.71040344 -0.0372467 C247.04596806 -0.04848532 254.38136156 -0.0453876 261.71690667 -0.02412373 C265.45695289 -0.01363826 269.19671417 -0.00944838 272.93675804 -0.02272034 C276.99674048 -0.03690934 281.05600851 -0.01992491 285.1159668 0 C286.87716976 -0.01338433 286.87716976 -0.01338433 288.67395258 -0.02703905 C299.31534676 0.07413891 307.2990514 2.8770527 315.07751465 10.21496582 C319.69918932 15.56589882 323.17737662 22.54345828 323.18941116 29.68657398 C323.19325231 30.54227885 323.19709345 31.39798372 323.201051 32.27961904 C323.20018451 33.22007013 323.19931803 34.16052122 323.19842529 35.12947083 C323.20288198 36.62767114 323.20288198 36.62767114 323.20742869 38.15613812 C323.2161327 41.51861055 323.21762538 44.88104745 323.21911621 48.24353027 C323.22374316 50.64800086 323.22876765 53.05247071 323.23416138 55.4569397 C323.24729876 62.00034382 323.25376944 68.54374054 323.25817204 75.08715463 C323.26093437 79.17261335 323.26517171 83.25806971 323.26967621 87.34352684 C323.28186885 98.65420159 323.29216821 109.96487443 323.2955513 121.27555561 C323.29577087 121.99950563 323.29599043 122.72345565 323.29621665 123.46934355 C323.29643493 124.19502876 323.29665321 124.92071396 323.2968781 125.66838962 C323.29732157 127.13891176 323.29776813 128.60943391 323.29821777 130.07995605 C323.2984392 130.80938631 323.29866063 131.53881656 323.29888877 132.29035076 C323.30283693 144.11017875 323.3202915 155.9299451 323.3435773 167.74974928 C323.36728959 179.88394885 323.37975309 192.01811748 323.38091922 204.15234059 C323.38183604 210.96567751 323.38759016 217.77893411 323.40573883 224.59224892 C323.42274737 231.00013568 323.42439333 237.40791061 323.41559982 243.81581497 C323.41482744 246.16924764 323.41919855 248.52268839 323.42905807 250.87610054 C323.44171865 254.08606602 323.43593253 257.29548608 323.42547607 260.50544739 C323.43756068 261.90608577 323.43756068 261.90608577 323.44988942 263.33501989 C323.39168392 270.96222383 320.99255813 276.12420538 315.90563965 281.77355957 C302.79433898 294.08099613 285.6513782 292.93314201 268.9173584 292.83605957 C266.56963713 292.83331937 264.22191413 292.83182791 261.87419128 292.83148193 C255.51154027 292.82645316 249.14909526 292.80210897 242.78651047 292.77383423 C236.78674692 292.74985697 230.78696332 292.73998909 224.787166 292.72874451 C164.20971661 292.609433 103.63262014 292.0736168 43.0579834 291.50793457 C43.0579834 283.58793457 43.0579834 275.66793457 43.0579834 267.50793457 C50.9779834 267.50793457 58.8979834 267.50793457 67.0579834 267.50793457 C66.7279834 266.84793457 66.3979834 266.18793457 66.0579834 265.50793457 C65.95388408 264.13640005 65.9093713 262.76006598 65.89685059 261.38464355 C65.88724304 260.53293076 65.8776355 259.68121796 65.86773682 258.80369568 C65.86348694 257.87980545 65.85923706 256.95591522 65.8548584 256.00402832 C65.84915833 255.0515773 65.84345825 254.09912628 65.83758545 253.11781311 C65.82812468 251.09609083 65.82159721 249.07435306 65.81774902 247.0526123 C65.80809863 243.98209986 65.77710851 240.91227261 65.7454834 237.84191895 C65.7389477 235.87512603 65.73369946 233.90832834 65.7298584 231.94152832 C65.7175116 231.03180771 65.70516479 230.1220871 65.69244385 229.18479919 C65.72778985 218.89371464 68.74093167 210.85351282 76.0579834 203.50793457 C88.21920404 193.91434209 105.99934846 196.19679523 120.5579834 196.20715332 C122.84379147 196.20325946 125.12959883 196.19892338 127.41540527 196.19416809 C132.18951776 196.18673651 136.96355624 196.18697542 141.7376709 196.19226074 C147.8300333 196.19805931 153.92209207 196.18109978 160.0144043 196.15791607 C164.72955063 196.14312812 169.44462462 196.14231378 174.15979004 196.1454258 C176.40507612 196.1449154 178.65036654 196.13973104 180.89562988 196.12961388 C212.12902121 196.00609813 212.12902121 196.00609813 222.77282715 206.14074707 C230.21963702 214.26122923 231.21639543 223.18394761 231.1907959 233.73840332 C231.19223099 235.04675896 231.19223099 235.04675896 231.19369507 236.38154602 C231.19437287 238.21623812 231.19254659 240.05093268 231.18835449 241.88562012 C231.18298112 244.69662828 231.18832298 247.50747809 231.19470215 250.31848145 C231.19404168 252.10428909 231.19276115 253.89009664 231.1907959 255.67590332 C231.19282013 256.51654831 231.19484436 257.3571933 231.19692993 258.22331238 C231.1834335 261.56829314 231.12309713 264.31259339 230.0579834 267.50793457 C230.7187085 267.44082275 231.37943359 267.37371094 232.06018066 267.30456543 C239.51054989 266.63618338 246.9208497 266.38086477 254.39782715 266.26184082 C255.41486725 266.24519379 256.43190735 266.22854675 257.47976685 266.21139526 C261.73273849 266.14469611 265.9857076 266.08267197 270.2388916 266.03112793 C273.37539187 265.99140733 276.51152868 265.9399339 279.64782715 265.88684082 C280.60414536 265.87842667 281.56046356 265.87001251 282.54576111 265.86134338 C287.4350722 265.77078993 291.4704146 265.41437618 296.0579834 263.50793457 C297.25773158 258.79658554 297.20041161 254.22433396 297.19169617 249.3984375 C297.19396172 248.47889392 297.19622728 247.55935035 297.19856149 246.61194181 C297.20489327 243.52973393 297.20407266 240.44757011 297.20324707 237.36535645 C297.20623902 235.15601037 297.20964163 232.94666481 297.21342468 230.73731995 C297.2222639 224.73540281 297.22460273 218.73349993 297.22524047 212.73157692 C297.2261896 207.72385936 297.22986784 202.71614514 297.23341256 197.70842886 C297.24109116 186.57197315 297.2440812 175.43552272 297.24340721 164.29906493 C297.24336726 163.63113156 297.2433273 162.96319819 297.24328613 162.27502441 C297.24324525 161.60627515 297.24320437 160.93752589 297.24316225 160.24851149 C297.24275559 149.40459416 297.25233116 138.56071151 297.2664245 127.71680421 C297.28078383 116.58034882 297.28751176 105.44390615 297.28683072 94.30744028 C297.28657543 88.05589145 297.28944404 81.80438191 297.30000877 75.55284119 C297.30966929 69.67597963 297.30978301 63.79919508 297.30249214 57.92233086 C297.30144384 55.76359889 297.30382365 53.60486218 297.3098526 51.44613838 C297.31754065 48.50314477 297.31294886 45.56041925 297.30522156 42.61743164 C297.3129369 41.3311988 297.3129369 41.3311988 297.32080811 40.01898146 C297.32458141 33.99363919 297.32458141 33.99363919 295.0579834 28.50793457 C291.55962281 26.78178266 288.72668105 26.25810031 284.84958649 26.2590456 C283.81511304 26.25444681 282.7806396 26.24984801 281.71481848 26.24510986 C280.58496354 26.25025342 279.45510859 26.25539698 278.29101562 26.26069641 C276.48292726 26.25707479 276.48292726 26.25707479 274.63831186 26.25338 C271.29571396 26.24871851 267.95334547 26.25303208 264.61076856 26.26114428 C261.00472455 26.26772409 257.39869404 26.26277218 253.79264832 26.25926208 C246.72967885 26.2542204 239.6667562 26.25986136 232.60379255 26.26911239 C224.38032159 26.27949627 216.15686076 26.2794262 207.93338448 26.27893981 C193.26152866 26.27843915 178.58969463 26.28760174 163.91784668 26.30212402 C149.67793379 26.3162115 135.43804008 26.32329479 121.19812012 26.32263184 C120.32109706 26.32259188 119.44407399 26.32255192 118.54047447 26.32251076 C117.66497442 26.3224704 116.78947437 26.32243005 115.88744402 26.32238847 C99.68063357 26.32169868 83.47383128 26.32758839 67.26702347 26.33654169 C61.53355026 26.33955866 55.80007854 26.34062132 50.06660461 26.34107399 C43.08034185 26.34175603 36.09409282 26.34621939 29.10783589 26.3554068 C25.54270781 26.36002479 21.97759732 26.36307028 18.41246605 26.36181259 C14.54994726 26.36051606 10.68746388 26.36696214 6.82495117 26.3742218 C5.69509623 26.3726732 4.56524129 26.3711246 3.40114832 26.36952907 C2.36667488 26.37275351 1.33220143 26.37597796 0.26638031 26.37930012 C-0.6251507 26.38000454 -1.51668172 26.38070897 -2.43522882 26.38143474 C-5.02326985 26.51203485 -7.4175521 26.9367915 -9.9420166 27.50793457 C-12.1211358 34.59729209 -12.26911264 41.30328655 -12.32092285 48.68762207 C-12.33791733 49.9367337 -12.3549118 51.18584534 -12.37242126 52.47280884 C-12.41636889 55.76974478 -12.45276725 59.06663702 -12.48461914 62.3637085 C-12.53058459 67.02835513 -12.58625615 71.69285823 -12.64732361 76.35733032 C-12.67930558 78.83682151 -12.70618783 81.3163846 -12.72755432 83.79598999 C-12.74104416 84.91120026 -12.754534 86.02641052 -12.76843262 87.17541504 C-12.77794449 88.15944305 -12.78745636 89.14347107 -12.79725647 90.15731812 C-12.9420166 92.50793457 -12.9420166 92.50793457 -13.9420166 94.50793457 C-17.92116819 94.53680441 -21.90029313 94.55468863 -25.8795166 94.57043457 C-27.58397949 94.58300293 -27.58397949 94.58300293 -29.32287598 94.5958252 C-30.40246582 94.59904785 -31.48205566 94.60227051 -32.59436035 94.60559082 C-34.09470825 94.61344604 -34.09470825 94.61344604 -35.62536621 94.62145996 C-37.9420166 94.50793457 -37.9420166 94.50793457 -38.9420166 93.50793457 C-39.0516968 91.63887871 -39.09112353 89.76566522 -39.10314941 87.89343262 C-39.11275696 86.69095383 -39.1223645 85.48847504 -39.13226318 84.2495575 C-39.13651306 82.93618912 -39.14076294 81.62282074 -39.1451416 80.26965332 C-39.15089636 78.90977477 -39.15665405 77.54989623 -39.16241455 76.1900177 C-39.17294444 73.32748029 -39.17877157 70.46497106 -39.18225098 67.60241699 C-39.18768792 63.96580632 -39.21160233 60.32957922 -39.24022293 56.69308758 C-39.25903491 53.87631731 -39.26406502 51.05963512 -39.26558685 48.24280739 C-39.2700232 46.26006837 -39.28859605 44.27737684 -39.30755615 42.29472351 C-39.27788337 30.062618 -37.69628925 18.85019077 -29.1920166 9.60559082 C-20.65139159 1.46100285 -11.48858276 -0.08730793 0 0 Z M91.0579834 225.50793457 C91.0579834 239.36793457 91.0579834 253.22793457 91.0579834 267.50793457 C129.0079834 267.50793457 166.9579834 267.50793457 206.0579834 267.50793457 C206.0579834 253.64793457 206.0579834 239.78793457 206.0579834 225.50793457 C202.01258936 222.36868007 202.01258936 222.36868007 197.49705505 222.12698364 C196.58716324 222.11852417 195.67727142 222.1100647 194.73980713 222.10134888 C193.74902161 222.10742157 192.75823608 222.11349426 191.73742676 222.11975098 C190.68827591 222.11449402 189.63912506 222.10923706 188.55818176 222.1038208 C185.08791244 222.09060948 181.61810119 222.09936255 178.14782715 222.10949707 C175.73934338 222.10747682 173.33086021 222.10456579 170.92237854 222.10079956 C165.87434059 222.09637479 160.82646184 222.10281294 155.77844238 222.11682129 C149.29932723 222.13392222 142.82058463 222.12406691 136.34148312 222.1061039 C131.36846596 222.09527815 126.39553756 222.09870672 121.42251778 222.10648727 C119.03303547 222.10849215 116.64354517 222.10602 114.25407219 222.09904861 C110.91887852 222.09145319 107.58429368 222.10301166 104.24914551 222.11975098 C103.25633575 222.11367828 102.263526 222.10760559 101.2406311 222.10134888 C100.33355911 222.10980835 99.42648712 222.11826782 98.4919281 222.12698364 C97.70345962 222.12811472 96.91499113 222.1292458 96.10262966 222.13041115 C93.60766715 222.39128765 93.60766715 222.39128765 91.0579834 225.50793457 Z " fill="#FFFFFF" transform="translate(188.9420166015625,-0.5079345703125)"/>
<path d="M0 0 C1.57055399 -0.0024356 3.14110642 -0.0061623 4.71165466 -0.01106262 C8.92839763 -0.02036721 13.14490423 -0.01113693 17.36162853 0.00226951 C21.79937403 0.01369257 26.23710972 0.0094684 30.67486572 0.00752258 C38.11873173 0.00664338 45.56250601 0.01764451 53.00634766 0.03613281 C61.5878179 0.05732583 70.16915427 0.06080141 78.7506454 0.05457085 C87.04428403 0.04885986 95.33787598 0.05454127 103.63150787 0.0657444 C107.14477663 0.07036426 110.65801659 0.07127569 114.17128754 0.06915855 C118.31156902 0.06726312 122.45171585 0.07547516 126.59196663 0.09121895 C128.1031571 0.09542951 129.61436131 0.09633435 131.12555504 0.09352875 C150.01463954 0.06380121 164.35610367 3.26244903 178.69628906 16.17700195 C186.03499225 23.82764108 191.82091935 35.23115048 191.81263733 45.80729675 C191.81349335 46.46164703 191.81434937 47.11599731 191.81523132 47.79017639 C191.81688885 49.99360868 191.81135909 52.19696526 191.8059082 54.40039062 C191.80560194 56.00272526 191.80573524 57.60506003 191.80627346 59.2073946 C191.80649952 63.50428454 191.80069724 67.80114671 191.79366302 72.09803009 C191.78797454 76.12781361 191.78770025 80.15759032 191.7869873 84.18737793 C191.78173679 95.97819379 191.76777568 107.76900447 191.75488281 119.55981445 C191.73425781 145.89793945 191.71363281 172.23606445 191.69238281 199.37231445 C107.21238281 199.37231445 22.73238281 199.37231445 -64.30761719 199.37231445 C-64.36949219 173.67356445 -64.43136719 147.97481445 -64.49511719 121.49731445 C-64.53608521 109.33911865 -64.53608521 109.33911865 -64.57788086 96.93530273 C-64.59143066 87.01464844 -64.59143066 87.01464844 -64.59394836 82.36593628 C-64.59673602 79.1288126 -64.60794928 75.89183748 -64.62434387 72.65475464 C-64.6450187 68.51733095 -64.65107272 64.3801213 -64.64683402 60.24265075 C-64.64771952 58.72941251 -64.65361059 57.21616629 -64.66526258 55.70297265 C-64.78289036 39.67420029 -61.05543072 26.75792898 -49.68261719 15.05981445 C-35.86553573 1.56191829 -18.4585573 -0.10204602 0 0 Z M-33.30761719 34.37231445 C-40.30433524 44.38512323 -40.45930626 53.66234075 -40.42114258 65.47973633 C-40.42126311 66.68998726 -40.42138365 67.90023819 -40.42150784 69.14716339 C-40.42076445 73.04514944 -40.41316242 76.94308702 -40.40527344 80.84106445 C-40.40380224 83.25545224 -40.40278262 85.66984035 -40.40222168 88.08422852 C-40.39698941 97.01359537 -40.38302815 105.9429554 -40.37011719 114.87231445 C-40.34949219 134.83731445 -40.32886719 154.80231445 -40.30761719 175.37231445 C28.33238281 175.37231445 96.97238281 175.37231445 167.69238281 175.37231445 C167.75425781 154.95356445 167.81613281 134.53481445 167.87988281 113.49731445 C167.90719482 107.06247559 167.93450684 100.62763672 167.96264648 93.99780273 C167.97268302 88.20335628 167.97268302 88.20335628 167.97871399 82.40890503 C167.98450687 79.16556032 168.00138978 75.92246303 168.02183264 72.67918408 C168.03795652 69.44685569 168.03390142 66.21453926 168.03295898 62.98217773 C168.04375331 61.84711351 168.05454763 60.71204929 168.06566906 59.54258919 C168.03032512 50.44815319 166.82736868 41.4759823 160.69238281 34.37231445 C150.37037373 25.76358966 139.55487311 24.92465453 126.51904297 24.98413086 C125.00996014 24.98005809 123.5008803 24.97471228 121.99180603 24.96820068 C117.91933297 24.95460266 113.84708964 24.95979505 109.7746129 24.96933794 C105.49478606 24.97697652 101.21497783 24.96987708 96.93515015 24.96517944 C89.74807231 24.95973287 82.56108717 24.96688334 75.37402344 24.98120117 C67.09085892 24.99751314 58.80791614 24.99224534 50.52475703 24.97572196 C43.38810201 24.9620608 36.25151333 24.96021033 29.11484945 24.96803796 C24.86348237 24.97269073 20.61221913 24.97340615 16.36085892 24.9634285 C12.36012329 24.95469383 8.35967035 24.9608979 4.35896492 24.97811127 C2.89979965 24.98204224 1.44061014 24.98100102 -0.01854515 24.97432327 C-11.71975811 24.92575491 -24.87730515 25.09709364 -33.30761719 34.37231445 Z " fill="#FFFFFF" transform="translate(64.3076171875,312.627685546875)"/>
<path d="M0 0 C1.06734375 0.48082031 2.1346875 0.96164063 3.234375 1.45703125 C21.79047203 10.57970575 35.91850831 27.6296105 42.72021484 47.05712891 C49.61262808 69.0270272 48.1788506 92.43057497 37.92041016 113.18408203 C27.14689424 133.1450256 9.73839531 147.05634145 -11.7421875 154.25390625 C-34.8745601 161.13602586 -57.89808553 156.29757732 -78.8671875 145.52734375 C-97.95481165 134.85373461 -110.43040355 116.58564849 -116.60205078 95.9909668 C-122.37448704 73.38870633 -117.59883979 48.84998434 -106 29 C-103.27845428 25.02801435 -100.29517255 21.50456479 -97 18 C-96.22914062 17.13890625 -95.45828125 16.2778125 -94.6640625 15.390625 C-70.43074972 -10.48961195 -31.30660808 -14.35541702 0 0 Z M-73 31 C-73.71414062 31.53496094 -74.42828125 32.06992188 -75.1640625 32.62109375 C-85.00017495 40.53935416 -91.10535701 52.57956264 -93 65 C-94.48453586 84.18797283 -90.76118996 98.89182198 -78.31640625 114.05078125 C-68.10189322 125.09813227 -52.84675778 131.19995921 -37.9921875 132.203125 C-19.12103289 132.48690176 -5.70675567 125.05077367 7.8125 112.2890625 C19.14160407 100.19288367 21.90164757 83.85160616 21.41015625 67.91796875 C20.59180583 54.6063063 13.5403973 42.939941 5 33 C-18.301736 12.7642819 -48.99369787 12.70393478 -73 31 Z " fill="#FFFFFF" transform="translate(164,135)"/>
<path d="M0 0 C0.61359375 0.54011719 1.2271875 1.08023438 1.859375 1.63671875 C2.84164062 2.46236328 2.84164062 2.46236328 3.84375 3.3046875 C14.41942125 12.91707087 21.2225903 27.36711045 22.02734375 41.609375 C22.12779586 57.50089899 19.7321207 72.41936911 8.859375 84.63671875 C8.10011719 85.51199219 7.34085937 86.38726562 6.55859375 87.2890625 C-4.06026709 98.75743221 -17.01050492 105.42133586 -32.71484375 106.875 C-49.71591501 107.3951616 -65.97853203 102.03004184 -78.828125 90.94921875 C-83.7494387 86.30931909 -87.15194342 81.67825606 -90.140625 75.63671875 C-90.83285156 74.25419922 -90.83285156 74.25419922 -91.5390625 72.84375 C-98.43633824 58.39136587 -99.45829156 43.15840599 -94.39453125 27.87890625 C-88.1886743 11.83260946 -78.34019816 -0.03577196 -62.765625 -7.67578125 C-43.02309677 -16.26446812 -16.94298898 -13.89745171 0 0 Z M-62.140625 22.63671875 C-69.2985095 30.42816365 -72.58376928 39.55480768 -72.203125 50.13671875 C-71.03104944 59.12263135 -66.07193281 68.59869775 -59.02734375 74.3671875 C-57.93873047 75.08841797 -57.93873047 75.08841797 -56.828125 75.82421875 C-56.11011719 76.31277344 -55.39210938 76.80132812 -54.65234375 77.3046875 C-46.89664339 81.41774166 -37.72565701 81.9008883 -29.140625 80.63671875 C-24.7390012 79.16623214 -21.0122409 77.17727675 -17.140625 74.63671875 C-16.51542969 74.24226563 -15.89023437 73.8478125 -15.24609375 73.44140625 C-9.0831829 68.97914675 -5.47649636 60.92328978 -4.140625 53.63671875 C-3.42204116 43.75619099 -4.20348095 34.85737975 -10.140625 26.63671875 C-18.15458326 17.99007957 -26.18329765 13.1363517 -38.09375 12.546875 C-47.53380695 12.82523565 -55.16661683 16.33991409 -62.140625 22.63671875 Z " fill="#FFFFFF" transform="translate(375.140625,69.36328125)"/>
</svg>
