<?xml version="1.0" encoding="UTF-8"?>
<svg version="1.1" xmlns="http://www.w3.org/2000/svg" width="512" height="512">
<path d="M0 0 C1.25343032 -0.00538554 2.50686063 -0.01077108 3.79827368 -0.01631981 C7.2612512 -0.03073286 10.72398988 -0.02654279 14.18698025 -0.019153 C17.92805635 -0.01441329 21.66908138 -0.02693829 25.41014099 -0.03717041 C32.73306548 -0.05434831 40.05590413 -0.05520049 47.37884353 -0.04995751 C53.33252344 -0.04591253 59.28617802 -0.04736326 65.23985672 -0.05270576 C66.08792147 -0.05345419 66.93598622 -0.05420261 67.80974991 -0.05497371 C69.53271933 -0.05650522 71.25568875 -0.05804357 72.97865815 -0.05958868 C89.12899461 -0.07331018 105.27928261 -0.06787859 121.42961796 -0.05640347 C136.19518161 -0.04647245 150.96061994 -0.0594101 165.72616427 -0.08333766 C180.89802535 -0.10773786 196.06982809 -0.1173342 211.2417084 -0.11068493 C219.75531638 -0.10719463 228.26882799 -0.10941223 236.78242111 -0.12693596 C244.03019175 -0.1416695 251.27779816 -0.14227842 258.52556561 -0.12486505 C262.22104918 -0.11636191 265.91623953 -0.11418837 269.61170769 -0.1295166 C273.62361814 -0.1459509 277.63482338 -0.13119557 281.64672852 -0.11352539 C282.80666427 -0.1231304 283.96660002 -0.1327354 285.16168535 -0.14263147 C296.30196356 -0.0418052 305.52327302 3.39997745 313.4503479 11.38768005 C319.51465999 19.58164349 321.75162226 26.95891687 321.72450256 37.02589417 C321.72973924 37.99035583 321.73497592 38.9548175 321.74037129 39.94850528 C321.7553612 43.17713296 321.75607623 46.40560201 321.75674438 49.63426208 C321.76436665 51.95062528 321.77279426 54.26698594 321.78196716 56.58334351 C321.80391506 62.87492048 321.81271173 69.16644885 321.81779361 75.45805979 C321.82143747 79.39098467 321.82767777 83.32389683 321.834795 87.25681686 C321.85424996 98.15841312 321.87076318 109.05999639 321.87367153 119.96161079 C321.8738591 120.65870519 321.87404667 121.35579959 321.87423993 122.07401805 C321.87460616 123.48704171 321.87496986 124.90006537 321.87533104 126.31308903 C321.87551385 127.01446188 321.87569666 127.71583473 321.87588501 128.4384613 C321.87615583 129.49181375 321.87615583 129.49181375 321.87643213 130.56644605 C321.87997103 141.93589628 321.90697718 153.30515678 321.9443829 164.67454125 C321.98253082 176.36364754 322.00182949 188.05265987 322.00213104 199.74182975 C322.00292319 206.29827944 322.01163357 212.85448438 322.04012871 219.41087723 C322.06634799 225.58172569 322.06849248 231.7521272 322.05247307 237.92300606 C322.05066156 240.18201105 322.05732212 242.44104196 322.07329178 244.69999123 C322.2497601 271.29330773 322.2497601 271.29330773 312.25112915 281.8603363 C303.61706616 289.18337021 295.22286081 291.69505894 284.1239624 291.62818909 C282.56656446 291.63075236 282.56656446 291.63075236 280.97770393 291.63336742 C277.49992772 291.63666071 274.0223446 291.62566108 270.54458618 291.61473083 C268.05112208 291.61416669 265.55765764 291.61448335 263.06419373 291.61561584 C257.69657027 291.61607123 252.32900688 291.6103997 246.96139908 291.59914017 C239.20079256 291.5828715 231.44020955 291.57767576 223.67958783 291.57516418 C211.0878617 291.57078923 198.49616151 291.55748553 185.90444946 291.53855896 C173.67430755 291.52019501 161.44417269 291.50604102 149.21401978 291.49754333 C148.45988624 291.49701789 147.70575269 291.49649244 146.92876662 291.49595107 C143.14542045 291.49334096 139.36207422 291.49081355 135.57872796 291.48832726 C104.20258182 291.46760097 72.82647023 291.43182962 41.4503479 291.38768005 C41.4503479 283.46768005 41.4503479 275.54768005 41.4503479 267.38768005 C49.3703479 267.38768005 57.2903479 267.38768005 65.4503479 267.38768005 C65.39234009 264.03869568 65.33433228 260.6897113 65.27456665 257.23924255 C65.23549094 253.96924707 65.20517764 250.69927833 65.1756897 247.42918396 C65.15065881 245.16929848 65.11662352 242.90949303 65.07315063 240.64988708 C65.01199557 237.38780386 64.98402288 234.12679761 64.96206665 230.86424255 C64.92335701 229.36674973 64.92335701 229.36674973 64.88386536 227.83900452 C64.88035676 218.9178948 67.76277231 212.16194759 73.7003479 205.51268005 C82.10355453 197.75024081 92.10234662 197.23739748 102.99453735 197.24241638 C104.04409607 197.23905777 105.09365479 197.23569916 106.17501831 197.23223877 C109.6379007 197.22275527 113.10073459 197.22078694 116.56362915 197.2197113 C118.97730021 197.21649686 121.39097107 197.21313264 123.80464172 197.20962524 C128.86257377 197.20364044 133.92048874 197.20178467 138.97842407 197.20237732 C145.44783894 197.20247889 151.91714394 197.18882896 158.38653278 197.17160511 C163.3717753 197.16046641 168.35699142 197.15845869 173.3422451 197.15898705 C175.72677171 197.15780967 178.11129906 197.15340152 180.49581337 197.14565468 C183.83661132 197.13581743 187.17717279 197.13874771 190.51797485 197.14476013 C191.98414497 197.13633087 191.98414497 197.13633087 193.47993469 197.12773132 C204.01857635 197.17573535 212.54488851 198.86092748 220.39956665 206.2118988 C227.61297989 213.90923075 228.90386927 221.21825303 228.74331665 231.45018005 C228.73907181 232.48207458 228.73482697 233.51396912 228.73045349 234.57713318 C228.71376591 237.84758972 228.67613185 241.11741222 228.6378479 244.38768005 C228.62278826 246.61553569 228.6091021 248.84340106 228.59683228 251.0712738 C228.563895 256.51028935 228.5137954 261.94893938 228.4503479 267.38768005 C236.31764019 267.32639888 244.18460367 267.24924264 252.05152416 267.15196514 C255.70470652 267.10728787 259.35777805 267.06802628 263.01113892 267.04124451 C266.53860969 267.0151846 270.06565336 266.97476413 273.59285927 266.92449379 C275.58962469 266.89975429 277.58655546 266.88978707 279.58345032 266.8800354 C280.80433853 266.86024124 282.02522675 266.84044708 283.28311157 266.8200531 C284.35566696 266.80895004 285.42822235 266.79784698 286.53327942 266.78640747 C289.90762702 266.32517562 291.7584458 265.45867166 294.4503479 263.38768005 C296.12033652 260.62994807 296.7007681 258.57082838 296.70482349 255.36431217 C296.71065569 254.56870068 296.71648788 253.77308918 296.72249681 252.95336825 C296.71871748 252.08518495 296.71493816 251.21700165 296.71104431 250.32250977 C296.71486986 249.39565351 296.71869541 248.46879725 296.72263688 247.51385444 C296.73297493 244.40085685 296.72897318 241.28804342 296.7250061 238.17503357 C296.72935212 235.94612965 296.73453489 233.71722722 296.74049377 231.48832703 C296.75390662 225.42848729 296.75445992 219.36870984 296.75193048 213.30885816 C296.75086235 208.25396595 296.75574004 203.19908642 296.7605359 198.14419693 C296.77227412 185.53924025 296.77140147 172.93432178 296.76497909 160.32936566 C296.75980951 149.38189971 296.77106599 138.43452273 296.79007731 127.48707438 C296.80944774 116.24668351 296.81742156 105.00633361 296.81395406 93.76592201 C296.81213842 87.45509769 296.81480538 81.14435486 296.82866859 74.83354378 C296.8412148 68.90002628 296.8393332 62.96668726 296.82625771 57.03317261 C296.82388541 54.85347878 296.82664986 52.67377252 296.83488083 50.49409294 C296.84529462 47.5224643 296.83729069 44.5514405 296.8245697 41.57983398 C296.83194399 40.71388141 296.83931827 39.84792883 296.84691602 38.95573527 C296.80497269 34.30996051 296.57045703 31.09306201 293.4503479 27.38768005 C290.34089011 25.45304204 287.96300555 25.13731029 284.33097076 25.13599777 C282.77087194 25.12817453 282.77087194 25.12817453 281.17925596 25.12019324 C280.03802416 25.12465469 278.89679236 25.12911613 277.72097778 25.13371277 C276.5075673 25.13059279 275.29415681 25.12747281 274.04397631 25.12425828 C270.67439016 25.11765269 267.30502638 25.12004167 263.93545365 25.12623072 C260.30214048 25.13074862 256.668847 25.12377474 253.03553772 25.11827087 C245.91729115 25.10936814 238.7990867 25.11130279 231.68083847 25.11709616 C225.89673445 25.12160918 220.11264226 25.12222711 214.32853699 25.12004852 C213.50595155 25.11974206 212.68336611 25.11943559 211.83585384 25.11911984 C210.1648939 25.1184804 208.49393396 25.11783197 206.82297403 25.11717466 C191.14687615 25.11146878 175.47080164 25.11803328 159.7947076 25.12877539 C146.33794969 25.13771113 132.88122628 25.13615916 119.42446899 25.12693787 C103.80524296 25.11623977 88.18603741 25.11201813 72.56680822 25.11816239 C70.90192509 25.11879951 69.23704195 25.11942825 67.57215881 25.12004852 C66.34336189 25.12051135 66.34336189 25.12051135 65.08974078 25.12098353 C59.31122091 25.12271185 53.53271403 25.11979241 47.75419617 25.11508942 C40.71407174 25.1094857 33.67399193 25.11098628 26.63387263 25.1216509 C23.04050149 25.1269145 19.44720478 25.1289527 15.85383415 25.1223526 C11.96241982 25.11531306 8.07112793 25.12370698 4.17971802 25.13371277 C2.46787032 25.1270206 2.46787032 25.1270206 0.72143984 25.12019324 C-0.31862605 25.12540874 -1.35869193 25.13062423 -2.43027496 25.13599777 C-3.3288033 25.13632248 -4.22733163 25.13664718 -5.15308809 25.13698173 C-7.76763943 25.41048314 -9.34773614 25.96502335 -11.5496521 27.38768005 C-14.17241178 31.54708977 -14.93145157 34.79314927 -14.98202515 39.66844177 C-15.00181931 40.88925446 -15.02161346 42.11006714 -15.04200745 43.36787415 C-15.05159233 45.32287338 -15.05159233 45.32287338 -15.06137085 47.31736755 C-15.07823265 48.67644357 -15.0963849 50.03550412 -15.11576843 51.39454651 C-15.16311234 54.95529857 -15.19302201 58.51598795 -15.21920776 62.07695007 C-15.24909264 65.71711093 -15.29559552 69.35705618 -15.34066772 72.99705505 C-15.42652286 80.12715331 -15.49240907 87.25728629 -15.5496521 94.38768005 C-23.4696521 94.38768005 -31.3896521 94.38768005 -39.5496521 94.38768005 C-39.64043648 85.97231727 -39.71364428 77.55734256 -39.75690079 69.14161968 C-39.77767378 65.23281174 -39.80579978 61.32435952 -39.85140991 57.41575623 C-39.89523953 53.63558323 -39.91886632 49.85574989 -39.92916107 46.07534218 C-39.93648657 44.64138768 -39.95078943 43.20744934 -39.97257233 41.77364159 C-40.139098 30.34601168 -38.73149016 20.28988275 -31.31137085 11.16893005 C-22.31658188 2.07442059 -12.32805016 -0.06363133 0 0 Z M89.4503479 225.38768005 C89.4503479 239.24768005 89.4503479 253.10768005 89.4503479 267.38768005 C127.4003479 267.38768005 165.3503479 267.38768005 204.4503479 267.38768005 C204.4503479 253.52768005 204.4503479 239.66768005 204.4503479 225.38768005 C201.18196935 222.09452269 201.18196935 222.09452269 196.97171021 222.00672913 C196.0547789 221.99826965 195.1378476 221.98981018 194.19313049 221.98109436 C193.18939896 221.98716705 192.18566742 221.99323975 191.15151978 221.99949646 C189.56338219 221.99161102 189.56338219 221.99161102 187.94316101 221.98356628 C184.43499097 221.97033647 180.92727275 221.97911518 177.4190979 221.98924255 C174.98676465 221.98722268 172.554432 221.98431198 170.12210083 221.98054504 C165.02100873 221.97611764 159.92007407 221.9825663 154.81900024 221.99656677 C148.27147642 222.01365868 141.7243215 222.00381976 135.17681122 221.98584938 C130.15318 221.97502291 125.12963663 221.9784527 120.10600281 221.98623276 C117.69140072 221.9882379 115.27679073 221.98576453 112.86219788 221.9787941 C109.49097482 221.9711985 106.12035407 221.98275785 102.74917603 221.99949646 C101.24357872 221.99038742 101.24357872 221.99038742 99.70756531 221.98109436 C98.790634 221.98955383 97.8737027 221.99801331 96.9289856 222.00672913 C95.73327312 222.00842574 95.73327312 222.00842574 94.51340485 222.01015663 C92.00196187 222.2677907 92.00196187 222.2677907 89.4503479 225.38768005 Z " fill="#000000" transform="translate(190.54965209960938,-0.3876800537109375)"/>
<path d="M0 0 C1.6549459 -0.00599095 3.30988901 -0.0127978 4.96482849 -0.02035522 C9.44443867 -0.03796701 13.92397235 -0.04270863 18.40361381 -0.0439868 C21.20787896 -0.04541195 24.0121249 -0.04968849 26.81638527 -0.05498123 C36.61555838 -0.07346719 46.41467721 -0.08165384 56.21386719 -0.08007812 C65.32178357 -0.07887786 74.42946254 -0.09996125 83.53731889 -0.13156545 C91.37796944 -0.15779461 99.21854278 -0.16844261 107.05923682 -0.16716731 C111.73269338 -0.16665952 116.4059389 -0.17224019 121.07935143 -0.19352341 C125.47980875 -0.21301749 129.87985619 -0.21295469 134.28032875 -0.19849014 C135.88582591 -0.19641455 137.49134949 -0.20102745 139.09680176 -0.21321106 C151.031354 -0.29783911 162.55305284 0.81957014 172.69262695 7.79052734 C173.53825195 8.35771484 174.38387695 8.92490234 175.25512695 9.50927734 C176.46168945 10.39099609 176.46168945 10.39099609 177.69262695 11.29052734 C178.52665039 11.89638672 179.36067383 12.50224609 180.2199707 13.12646484 C188.49764882 20.37106781 194.48382457 31.55360949 196.69262695 42.29052734 C196.78224804 44.42348216 196.81459758 46.55907257 196.81288147 48.69390869 C196.81425897 50.00927738 196.81563646 51.32464607 196.8170557 52.67987442 C196.81350906 54.14156363 196.80987116 55.60325262 196.80615234 57.06494141 C196.80584599 58.62734856 196.80597954 60.18975585 196.8065176 61.75216293 C196.80674341 65.9371125 196.8009465 70.12203349 196.79390717 74.30697632 C196.78821328 78.23362315 196.7879441 82.16026303 196.78723145 86.08691406 C196.78198361 97.57145561 196.76802246 109.05599184 196.75512695 120.54052734 C196.73450195 146.19802734 196.71387695 171.85552734 196.69262695 198.29052734 C112.21262695 198.29052734 27.73262695 198.29052734 -59.30737305 198.29052734 C-59.38987305 172.79802734 -59.47237305 147.30552734 -59.55737305 121.04052734 C-59.61199707 108.9879541 -59.61199707 108.9879541 -59.66772461 96.69189453 C-59.68579102 86.84375 -59.68579102 86.84375 -59.68914795 82.22637939 C-59.69285905 79.01679312 -59.70778633 75.80747426 -59.72967529 72.59796143 C-59.75730302 68.49200334 -59.76530279 64.38642886 -59.75966215 60.28038645 C-59.76084 58.78100255 -59.76865848 57.28160394 -59.78423357 55.78230047 C-59.93584214 40.46478751 -56.11174961 28.07045097 -45.80737305 16.47802734 C-44.98237305 15.75615234 -44.15737305 15.03427734 -43.30737305 14.29052734 C-42.83170898 13.82388672 -42.35604492 13.35724609 -41.8659668 12.87646484 C-29.74290944 1.48371215 -15.81051166 -0.01142824 0 0 Z M-28.30737305 33.29052734 C-32.74791517 39.71625301 -35.4353983 44.72897077 -35.42762756 52.59295654 C-35.42900506 53.66482586 -35.43038256 54.73669518 -35.4318018 55.84104538 C-35.42820369 57.01643497 -35.42460558 58.19182457 -35.42089844 59.40283203 C-35.42101897 60.66216175 -35.42113951 61.92149147 -35.42126369 63.2189827 C-35.42064059 66.62284963 -35.41569698 70.02665554 -35.40865326 73.43051147 C-35.40295478 76.62554833 -35.40268994 79.82058367 -35.40197754 83.015625 C-35.39673198 92.35726377 -35.38277081 101.698896 -35.36987305 111.04052734 C-35.34924805 131.91302734 -35.32862305 152.78552734 -35.30737305 174.29052734 C33.33262695 174.29052734 101.97262695 174.29052734 172.69262695 174.29052734 C172.81637695 143.16740234 172.81637695 143.16740234 172.94262695 111.41552734 C172.97904297 104.87627441 173.01545898 98.33702148 173.05297852 91.59960938 C173.06636042 85.71202508 173.06636042 85.71202508 173.07440186 79.82443237 C173.08052453 77.21205813 173.09303512 74.60047105 173.1149292 71.98825073 C173.14774224 68.02010374 173.14824692 64.05227253 173.14672852 60.08398438 C173.16831717 58.35328296 173.16831717 58.35328296 173.19034195 56.58761787 C173.1474746 48.1842404 171.58015699 40.80869404 166.44262695 33.97802734 C159.67922512 27.36833919 152.42118112 24.05026851 142.88824463 24.02310181 C141.89883507 24.01630514 141.89883507 24.01630514 140.88943744 24.00937116 C138.69257659 23.99677236 136.4959651 23.99834457 134.29907227 24 C132.7183704 23.99401184 131.13767145 23.98720563 129.55697632 23.97964478 C125.27165718 23.96200497 120.98641796 23.9572902 116.70106602 23.9560132 C114.02045681 23.95458969 111.33986779 23.95031625 108.65926361 23.94501877 C99.29797582 23.92652385 89.93674491 23.91834732 80.57543945 23.91992188 C71.86512671 23.92112252 63.15506205 23.90003391 54.44481206 23.86843455 C46.95413912 23.84223322 39.46354701 23.83155622 31.97282863 23.83283269 C27.50455546 23.83334128 23.03650276 23.82771599 18.56827545 23.80647659 C14.36237153 23.78702953 10.1568969 23.78701358 5.95097733 23.80150986 C4.41356144 23.8035912 2.87611823 23.79893753 1.33874893 23.78678894 C-10.02121189 23.70288596 -20.06228933 24.6706671 -28.30737305 33.29052734 Z " fill="#000000" transform="translate(59.307373046875,313.70947265625)"/>
<path d="M0 0 C17.33074476 13.39311665 27.96239602 31.74174663 31.625 53.38671875 C34.38733165 76.59523736 28.57443642 98.42936201 14.375 117.0625 C1.02490698 133.16336833 -17.08183937 144.03037337 -37.9375 147.0625 C-63.21296113 149.06421047 -85.2630424 143.45788133 -104.9375 127.0625 C-120.26805776 113.63467104 -129.61443669 94.20302056 -131.9375 74.0625 C-133.1719618 50.51276714 -127.27010439 28.73120949 -111.4375 10.6875 C-109.9560103 9.12803715 -108.45712584 7.584825 -106.9375 6.0625 C-106.32519531 5.43859375 -105.71289062 4.8146875 -105.08203125 4.171875 C-76.1225617 -23.2439128 -31.31025321 -21.84740509 0 0 Z M-91.9375 26.0625 C-92.50082031 26.60390625 -93.06414062 27.1453125 -93.64453125 27.703125 C-104.25162286 38.78599645 -107.78665581 54.21943138 -107.9375 69.0625 C-106.91146973 84.71896184 -99.41715838 98.4640752 -88.15625 109.18359375 C-74.66772506 120.60609463 -59.27544479 124.20232106 -41.9375 123.0625 C-26.09640468 120.84512248 -13.9488519 112.49711405 -3.8046875 100.55078125 C6.55495724 86.62580423 9.52353436 71.05449458 7.0625 54.0625 C3.63371572 38.800683 -5.18528289 25.87535154 -17.99609375 16.92578125 C-42.5314226 2.01705276 -71.79428696 5.66614066 -91.9375 26.0625 Z " fill="#000000" transform="translate(177.9375,143.9375)"/>
<path d="M0 0 C12.23790796 8.98669263 20.91558971 22.31865155 23.71484375 37.34765625 C25.52044607 54.14223125 23.34922401 70.09555695 13 84 C2.69747079 96.4112564 -10.77307516 104.86487831 -27 107 C-44.99839382 108.07206928 -60.6818618 104.10484838 -74.6171875 92.3203125 C-82.37410201 84.76685804 -87.57587435 76.2292157 -91 66 C-91.24492187 65.30003906 -91.48984375 64.60007812 -91.7421875 63.87890625 C-96.21081553 48.17749406 -92.64119957 31.43530515 -85.07421875 17.43359375 C-77.80007401 4.85765575 -65.06613398 -4.6694807 -51.05322266 -8.53735352 C-32.89529073 -12.98286158 -15.85729487 -9.47390587 0 0 Z M-62.3125 27.9375 C-68.2146835 36.34169607 -70.24702962 45.28088662 -68.609375 55.41796875 C-66.4099017 64.28635788 -61.12253763 72.084536 -53.75 77.5 C-45.19174462 82.57319262 -35.69708907 84.13219127 -26 82 C-16.81184366 79.10632739 -9.33267768 73.702392 -4.25390625 65.49609375 C0.52403145 55.98487197 1.0227669 46.88365664 -1.96875 36.7734375 C-5.41587749 27.50275372 -11.85418548 21.07745972 -20.63671875 16.6796875 C-36.06378568 10.38562025 -52.01529699 14.88932854 -62.3125 27.9375 Z " fill="#000000" transform="translate(372,68)"/>
</svg>
